<svg xmlns="http://www.w3.org/2000/svg" viewBox="0 0 178 116">
  <g transform="translate(0.000000,116.000000) scale(0.100000,-0.100000)">
    <g class="whale-body" fill="#3a1b1b">
      <path d="M1324 1074 c-11 -57 2 -102 46 -160 46 -61 50 -95 16 -129 -54 -54
-113 -45 -222 31 -213 149 -370 194 -569 164 -181 -28 -328 -102 -462 -234
-85 -84 -93 -95 -93 -130 0 -33 8 -46 63 -103 34 -36 89 -84 122 -108 66 -47
182 -108 195 -103 14 5 -23 80 -60 121 -48 55 -34 62 46 23 82 -41 151 -99
195 -162 l30 -44 93 0 c197 0 404 87 566 237 64 59 141 166 189 260 35 70 57
88 120 98 57 9 128 73 138 124 5 28 4 32 -8 25 -8 -5 -51 -11 -96 -14 -60 -5
-88 -11 -103 -25 -23 -21 -22 -22 -45 27 -10 23 -35 49 -66 69 -27 17 -54 40
-60 50 -15 29 -27 23 -35 -17z m-495 -191 c55 -20 114 -72 149 -132 24 -41 27
-56 27 -136 0 -73 -4 -98 -22 -130 -75 -140 -248 -199 -386 -132 -129 64 -192
204 -153 340 49 168 215 250 385 190z M390 420 c0 -13 18 -22 24 -11 3 5 -1
11 -9 15 -8 3 -15 1 -15 -4z M450 398 c0 -2 21 -21 48 -43 26 -21 38 -28 27
-16 -19 23 -75 66 -75 59z M470 337 c16 -44 12 -101 -10 -148 -24 -54 -25 -87
-4 -117 23 -33 57 -43 95 -30 85 29 64 156 -45 274 -39 42 -45 45 -36 21z m20
-192 c0 -25 7 -43 25 -59 31 -29 31 -36 1 -36 -47 0 -76 53 -57 103 15 38 31
34 31 -8z"/>
    </g>
    <g class="whale-line" fill="#ffffff">
      <path d="M1314 1105 c-28 -69 -13 -142 46 -213 37 -45 38 -74 4 -101 -49 -38
-96 -25 -221 63 -146 102 -297 156 -436 156 -87 0 -221 -28 -312 -64 -115 -47
-207 -110 -298 -206 -73 -75 -77 -82 -77 -125 0 -41 5 -50 61 -110 34 -36 89
-86 122 -111 71 -53 222 -128 238 -119 10 7 8 24 -7 72 -3 10 1 7 10 -7 21
-34 20 -85 -4 -148 -34 -89 -21 -140 44 -167 40 -17 79 -9 110 21 63 63 25
188 -93 304 -31 30 -42 45 -26 33 37 -26 94 -86 125 -132 l23 -34 126 6 c105
4 140 9 213 34 111 38 221 102 313 179 84 72 132 133 200 257 52 95 68 109
143 127 75 19 142 96 142 166 0 23 -3 25 -22 19 -13 -4 -59 -10 -103 -14 -44
-3 -89 -11 -100 -18 -17 -10 -22 -7 -37 17 -9 16 -41 47 -72 69 -30 22 -57 50
-61 61 -10 31 -34 24 -51 -15z m45 -14 c6 -10 33 -33 60 -50 31 -20 56 -46 66
-69 23 -49 22 -48 45 -27 15 14 43 20 103 25 45 3 88 9 96 14 12 7 13 3 8 -25
-10 -51 -81 -115 -138 -124 -63 -10 -85 -28 -120 -98 -48 -94 -125 -201 -189
-260 -162 -150 -369 -237 -566 -237 l-93 0 -30 44 c-44 63 -113 121 -195 162
-80 39 -94 32 -46 -23 37 -41 74 -116 60 -121 -13 -5 -129 56 -195 103 -33 24
-88 72 -122 108 -55 57 -63 70 -63 103 0 35 8 46 93 130 134 132 281 206 462
234 199 30 356 -15 569 -164 109 -76 168 -85 222 -31 34 34 30 68 -16 129 -44
58 -57 103 -46 160 8 40 20 46 35 17z m-945 -682 c-6 -11 -24 -2 -24 11 0 5 7
7 15 4 8 -4 12 -10 9 -15z m158 -183 c32 -62 39 -105 23 -141 -24 -59 -102
-66 -139 -13 -21 30 -20 63 4 117 22 47 26 104 10 148 -9 24 -3 21 36 -21 25
-27 55 -68 66 -90z M666 899 c-140 -22 -249 -171 -232 -316 28 -240 316 -343
489 -175 66 63 82 104 82 207 0 80 -3 95 -27 136 -67 114 -182 168 -312 148z
m169 -33 c58 -27 108 -74 138 -131 17 -31 22 -58 22 -120 0 -70 -4 -87 -30
-134 -31 -56 -88 -106 -148 -128 -18 -6 -61 -12 -97 -12 -262 -2 -375 326
-169 491 77 62 194 76 284 34z M459 153 c-19 -50 10 -103 57 -103 30 0 30 7
-1 36 -18 16 -25 34 -25 59 0 42 -16 46 -31 8z"/>
    </g>
    <g class="eye-socket" fill="#000000">
      <path d="M665 881 c-134 -33 -224 -157 -212 -291 6 -73 35 -127 93 -179 144
-126 375 -64 435 116 7 21 9 66 7 109 -4 60 -10 81 -37 122 -38 60 -94 101
-163 119 -57 14 -77 15 -123 4z m163 -117 c43 -35 82 -105 82 -149 0 -46 -44
-127 -85 -154 -80 -54 -192 -34 -252 46 -25 32 -28 45 -28 108 0 63 3 76 29
109 61 81 179 99 254 40z"/>
    </g>
    <g class="eye-iris" fill="#f59e0b">
      <path d="M668 790 c-46 -14 -85 -48 -107 -93 -87 -180 127 -348 280 -220 81
68 85 198 7 270 -48 45 -118 62 -180 43z M443 615 c0 -22 2 -30 4 -17 2 12 2
30 0 40 -3 9 -5 -1 -4 -23z M914 418 l-19 -23 23 19 c21 18 27 26 19 26 -2 0
-12 -10 -23 -22z"/>
    </g>
  </g>
</svg>