<svg viewBox="0 0 512 512" xmlns="http://www.w3.org/2000/svg">
  <!-- 背景: ダークグレー + 角丸 -->
  <rect width="512" height="512" rx="80" ry="80" fill="#141414"/>
  <!-- 鯨をネストSVGで中央配置 -->
  <svg x="81" y="123" width="432" height="282" viewBox="4850 2450 5300 3450">
    <defs>
      <clipPath id="tear-clip">
        <!-- 涙の下部ドロップのみ表示 (体より下の部分) -->
        <rect x="5800" y="4950" width="1200" height="900"/>
      </clipPath>
    </defs>
    <!-- 鯨本体 (胸ビレの鉤型を滑らかなカーブに置換) -->
    <g transform="translate(0,7680) scale(1,-1)" fill="#ffffff" stroke="#0d4f8c" stroke-width="60" stroke-linejoin="round">
      <path d="M8800 5088 c-41 -86 -53 -156 -48 -268 8 -138 51 -231 172 -368 35
-40 72 -90 82 -110 42 -88 9 -187 -81 -246 -67 -44 -106 -56 -182 -56 -118 0
-238 55 -418 191 -396 299 -689 434 -1085 501 -115 20 -520 16 -643 -5 -449
-79 -851 -254 -1182 -516 -97 -76 -314 -290 -388 -381 -79 -98 -97 -139 -97
-221 0 -103 35 -163 194 -327 318 -328 1343 -1043 2423 -761 540 141 1064 479 1403 904 138 174 285 423
359 607 33 82 89 142 157 167 30 12 67 21 83 21 44 0 174 36 236 66 73 34 191
151 227 224 15 31 37 95 48 144 29 121 22 128 -75 76 -89 -47 -151 -56 -283
-42 -150 15 -252 -10 -321 -79 -16 -16 -34 -29 -39 -29 -6 0 -13 19 -17 43
-18 105 -93 194 -227 270 -106 59 -170 121 -205 197 -37 79 -55 79 -93 -2z"/>
    </g>
    <!-- 涙 (左上をクリップで除去、下部のドロップのみ表示) -->
    <g clip-path="url(#tear-clip)">
      <g transform="translate(0,7680) scale(1,-1)" fill="#ffffff" stroke="#0d4f8c" stroke-width="60" stroke-linejoin="round">
        <path d="M6153 2888 c88 -137 102 -177 102 -293 l0 -100 -60 -135 c-53 -121 -59 -143
-63 -216 -5 -95 13 -146 72 -212 102 -112 300 -112 402 0 57 64 78 120 77 213
0 235 -231 588 -506 773 l-77 53 53 -83z m122 -652 c-13 -123 34 -215 136
-263 35 -17 40 -23 26 -28 -26 -11 -98 3 -134 24 -18 12 -42 41 -58 76 -23 46
-27 64 -22 105 5 45 43 150 54 150 3 0 2 -29 -2 -64z"/>
      </g>
    </g>
    <!-- 虹彩 -->
    <circle cx="7000" cy="4075" r="1145" fill="#141414"/>
    <circle cx="7000" cy="4075" r="1145" fill="none" stroke="#0d4f8c" stroke-width="45"/>
    <!-- 瞳孔 -->
    <circle cx="7000" cy="4075" r="640" fill="#141414"/>
    <!-- オレンジリング -->
    <circle cx="7000" cy="4075" r="500" fill="none" stroke="#141414" stroke-width="90"/>
    <circle cx="7000" cy="4075" r="500" fill="none" stroke="#f59e0b" stroke-width="90" stroke-linecap="round"/>
    <!-- ハイライト -->
    <circle cx="6780" cy="3860" r="140" fill="#fff" opacity="0.12"/>
  </svg>
</svg>
