<svg xmlns="http://www.w3.org/2000/svg" viewBox="0 0 560 560">
<!-- 背景: #141414 角丸80 (app-icon-v1同様) -->
<rect width="560" height="560" rx="80" ry="80" fill="#141414"/>
<!-- 鯨全体を scale(0.825) + translate で瞳孔中心→画像中心に配置 -->
<g transform="translate(108.4,148) scale(0.825)">
  <!-- 鯨本体 (白塗り＋青アウトライン) -->
  <g transform="translate(-489,518.86) scale(0.1,-0.1)"
     fill="#ffffff" stroke="#0d4f8c" stroke-width="60" stroke-linejoin="round">
  <path d="M8791 5171 c-55 -55 -101 -197 -101 -312 0 -163 59 -286 216 -449 66
  -68 84 -101 84 -151 0 -67 -72 -155 -146 -179 -24 -8 -69 -11 -125 -8 -80 5
  -98 10 -181 52 -51 25 -131 75 -178 111 -382 294 -665 426 -1080 502 -121 22
  -527 25 -665 5 -261 -39 -500 -112 -738 -225 -265 -126 -470 -272 -711 -507
  -181 -177 -276 -315 -276 -404 0 -56 40 -149 93 -219 116 -151 443 -420 692
  -569 329 -198 752 -337 1119 -369 l120 -10 97 -102 c153 -162 312 -265 509
  -331 158 -53 269 -69 430 -63 154 6 202 17 242 57 59 60 32 103 -117 181 -55
  28 -125 68 -155 87 -62 40 -250 223 -250 244 0 8 36 25 88 43 104 35 377 168
  520 253 171 102 393 277 539 424 218 220 321 363 471 658 52 102 104 196 116
  209 25 28 108 67 162 76 236 38 387 132 486 302 49 83 70 154 72 240 1 68 -1
  76 -24 93 -31 25 -69 19 -126 -20 -81 -54 -114 -60 -299 -58 l-170 3 -63 -31
  -62 -31 -35 63 c-44 79 -110 137 -222 194 -105 54 -145 93 -192 185 -35 68
  -37 70 -78 73 -31 2 -47 -2 -62 -17z"/>
  </g>
  <!-- 虹彩 (iris) -->
  <circle cx="208" cy="160" r="118" fill="#141414"/>
  <circle cx="208" cy="160" r="118" fill="none" stroke="#0d4f8c" stroke-width="5"/>
  <!-- 瞳孔 (pupil) -->
  <circle cx="208" cy="160" r="36" fill="#141414"/>
  <!-- オレンジリング -->
  <circle cx="208" cy="160" r="54" fill="none" stroke="#141414" stroke-width="7.5"/>
  <circle cx="208" cy="160" r="54" fill="none" stroke="#f59e0b" stroke-width="7.5" stroke-linecap="round"/>
  <!-- ハイライト -->
  <circle cx="185.6" cy="137.6" r="14.2" fill="#fff" opacity="0.12"/>
</g>
</svg>
